<svg width="273" height="125" viewBox="0 0 273 125" fill="none" xmlns="http://www.w3.org/2000/svg">
<path d="M1 94.5C40.9006 59.4587 80.8012 59.4587 120.702 94.5C160.602 129.541 200.503 129.541 240.404 94.5" stroke="#74BBDA" stroke-width="1.98347" stroke-dasharray="3.97 3.97"/>
<path d="M61.8486 1V14.857M67.8335 4.46424L55.8633 11.3927M67.8335 11.3927L55.8633 4.46424" stroke="#C5ECFF" stroke-width="2" stroke-linecap="round" stroke-linejoin="round"/>
<path d="M207.486 38C209.689 38 211.476 36.2091 211.476 34C211.476 31.7909 209.689 30 207.486 30C205.282 30 203.496 31.7909 203.496 34C203.496 36.2091 205.282 38 207.486 38Z" stroke="#C5ECFF" stroke-width="2" stroke-linecap="round" stroke-linejoin="round"/>
<path d="M27.9329 67C30.1366 67 31.923 65.2091 31.923 63C31.923 60.7909 30.1366 59 27.9329 59C25.7293 59 23.9429 60.7909 23.9429 63C23.9429 65.2091 25.7293 67 27.9329 67Z" stroke="#C5ECFF" stroke-width="2" stroke-linecap="round" stroke-linejoin="round"/>
<path d="M272.828 66.1591C273.001 66.3265 273.065 66.6001 272.92 66.8429L259.489 89.725C259.316 90.0181 258.923 90.0907 258.659 89.8757L254.343 86.3784L249.415 82.3842V82.3703L272.803 66.1814L272.828 66.1591V66.1591Z" fill="white"/>
<path d="M272.828 66.1591L272.803 66.1814L249.415 82.3703V82.3842L241.608 76.0594C241.26 75.7775 241.369 75.2165 241.8 75.0908L272.282 66.0251C272.494 65.9609 272.694 66.0251 272.828 66.1591V66.1591Z" fill="white"/>
<path d="M249.415 82.3702V88.8207C249.415 89.2756 249.928 89.538 250.295 89.2756L254.343 86.3784" fill="#4992B0"/>
<path d="M272.828 66.1591C273.001 66.3265 273.065 66.6001 272.92 66.8429L259.489 89.725C259.316 90.0181 258.923 90.0907 258.659 89.8757L254.343 86.3784L249.415 82.3842L241.608 76.0594C241.26 75.7775 241.369 75.2165 241.8 75.0908L272.282 66.0251C272.494 65.9609 272.694 66.0251 272.828 66.1591V66.1591Z" fill="#C5ECFF"/>
<mask id="mask0_1116_61484" style="mask-type:alpha" maskUnits="userSpaceOnUse" x="84" y="15" width="111" height="110">
<rect x="84.7913" y="15" width="109.727" height="110" fill="white"/>
</mask>
<g mask="url(#mask0_1116_61484)">
<path d="M84.7913 47.8857C84.7913 45.6754 86.583 43.8836 88.7933 43.8836H190.516C192.726 43.8836 194.518 45.6754 194.518 47.8856V120.169C194.518 122.837 192.355 125 189.687 125H89.6223C86.9542 125 84.7913 122.837 84.7913 120.169V47.8857Z" fill="#74BBDA"/>
<path d="M95.4316 16.334C95.4316 15.5973 96.0288 15 96.7656 15H182.544C183.281 15 183.878 15.5973 183.878 16.334V89.1063H95.4316V16.334Z" fill="#005A74"/>
<path d="M144.743 88.6152L187.427 123.753C190.256 126.081 194.518 124.069 194.518 120.405V47.6392L144.743 88.6152Z" fill="url(#paint0_linear_1116_61484)"/>
<path d="M192.689 118.261C195.741 120.256 194.328 125 190.681 125L88.7933 125C86.5831 125 84.7913 123.208 84.7913 120.998L84.7913 47.7224L192.689 118.261Z" fill="#D2ECF9"/>
<path d="M146.427 43.8709C148.735 43.8709 150.605 41.9932 150.605 39.6769C150.605 37.3606 148.735 35.4829 146.427 35.4829C144.12 35.4829 142.25 37.3606 142.25 39.6769C142.25 41.9932 144.12 43.8709 146.427 43.8709Z" fill="white" fill-opacity="0.82"/>
<path d="M135.812 45.2223H134.532C128.914 45.2223 124.359 49.7945 124.359 55.4345C124.359 56.2812 124.844 57.0491 125.6 57.4248C128.486 58.859 131.734 59.6684 135.172 59.6684C138.61 59.6684 141.858 58.859 144.743 57.4248C145.499 57.0491 145.984 56.2812 145.984 55.4345C145.984 49.7945 141.43 45.2223 135.812 45.2223Z" fill="white"/>
<path d="M135.171 43.3888C138.157 43.3888 140.577 40.9589 140.577 37.9615C140.577 34.9641 138.157 32.5342 135.171 32.5342C132.185 32.5342 129.765 34.9641 129.765 37.9615C129.765 40.9589 132.185 43.3888 135.171 43.3888Z" fill="white"/>
<path d="M146.923 45.2866H145.934C144.707 45.2866 143.549 45.5772 142.514 46.0811C145.408 48.1768 147.297 51.588 147.297 55.4359C147.297 55.7782 147.248 56.1115 147.156 56.4286C149.543 56.3253 151.8 55.7226 153.825 54.7162C154.409 54.4258 154.784 53.8324 154.784 53.1781C154.784 48.8198 151.265 45.2866 146.923 45.2866Z" fill="white" fill-opacity="0.82"/>
</g>
<defs>
<linearGradient id="paint0_linear_1116_61484" x1="173.044" y1="68.1336" x2="194.596" y2="103.052" gradientUnits="userSpaceOnUse">
<stop offset="0.646483" stop-color="#BDDFF0"/>
<stop offset="1" stop-color="#BDDFF0" stop-opacity="0.73"/>
</linearGradient>
</defs>
</svg>
